# This file uses centimeters as units for non-parametric coordinates.

mtllib catwalk_Shaq.mtl
g default
v -13.584134 -0.000000 -19.105822
v 11.349992 -0.000000 -19.105822
v -13.584134 0.542408 -19.105822
v 11.349992 0.542408 -19.105822
v -13.584134 0.542408 -24.478045
v 11.349992 0.542408 -24.478045
v -13.584134 -0.000000 -24.478045
v 11.349992 -0.000000 -24.478045
v 33.471004 9.829203 -24.615505
v 33.471004 9.829203 -19.243282
v 33.471004 10.371611 -24.615505
v 33.471004 10.371611 -19.243282
vt 0.375000 0.000000
vt 0.625000 0.000000
vt 0.375000 0.250000
vt 0.625000 0.250000
vt 0.375000 0.500000
vt 0.625000 0.500000
vt 0.375000 0.750000
vt 0.625000 0.750000
vt 0.375000 1.000000
vt 0.625000 1.000000
vt 0.875000 0.000000
vt 0.875000 0.250000
vt 0.125000 0.000000
vt 0.125000 0.250000
vt 0.625000 0.000000
vt 0.875000 0.000000
vt 0.875000 0.250000
vt 0.625000 0.250000
vn 0.000000 0.000000 1.000000
vn 0.002450 0.000000 0.999997
vn 0.003287 0.000000 0.999995
vn 0.000000 0.000000 1.000000
vn 0.000000 1.000000 0.000000
vn -0.204098 0.978951 0.000000
vn -0.204848 0.978794 0.000000
vn 0.000000 1.000000 0.000000
vn 0.000000 0.000000 -1.000000
vn -0.003287 0.000000 -0.999995
vn -0.002450 0.000000 -0.999997
vn 0.000000 0.000000 -1.000000
vn 0.000000 -1.000000 0.000000
vn 0.204848 -0.978794 0.000000
vn 0.204098 -0.978951 0.000000
vn 0.000000 -1.000000 0.000000
vn 1.000000 0.000000 0.000000
vn 1.000000 0.000000 0.000000
vn 1.000000 0.000000 0.000000
vn 1.000000 0.000000 0.000000
vn -1.000000 0.000000 0.000000
vn -1.000000 0.000000 0.000000
vn -1.000000 0.000000 0.000000
vn -1.000000 0.000000 0.000000
vn 0.406057 -0.913848 0.000000
vn 0.406057 -0.913848 0.000000
vn -0.006214 0.000000 -0.999981
vn -0.006214 0.000000 -0.999981
vn -0.406057 0.913848 0.000000
vn -0.406057 0.913848 0.000000
vn 0.006214 0.000000 0.999981
vn 0.006214 0.000000 0.999981
s 1
g pCube4
usemtl initialShadingGroup
f 1/1/1 2/2/2 4/4/3 3/3/4
s 2
f 3/3/5 4/4/6 6/6/7 5/5/8
s 3
f 5/5/9 6/6/10 8/8/11 7/7/12
s 4
f 7/7/13 8/8/14 2/10/15 1/9/16
s off
f 10/15/17 9/16/18 11/17/19 12/18/20
f 7/13/21 1/1/22 3/3/23 5/14/24
s 4
f 2/2/15 8/11/14 9/16/25 10/15/26
s 3
f 8/11/11 6/12/10 11/17/27 9/16/28
s 2
f 6/12/7 4/4/6 12/18/29 11/17/30
s 1
f 4/4/3 2/2/2 10/15/31 12/18/32
