# This file uses centimeters as units for non-parametric coordinates.

mtllib catacomb_stairs_2.mtl
g default
v -6.000000 0.000000 -5.000000
v -5.000000 0.000000 -5.000000
v -4.000000 0.000000 -5.000000
v 0.000000 0.000000 -5.000000
v 1.000000 0.000000 -5.000000
v 2.000000 0.000000 -5.000000
v 3.000000 0.000000 -5.000000
v 4.000000 0.000000 -5.000000
v -4.000000 0.000000 -14.000000
v 0.000000 0.000000 -14.000000
v -6.000000 2.540000 -5.000000
v -5.000000 3.170000 -5.000000
v -4.000000 4.500000 -5.000000
v 0.000000 4.500000 -5.000000
v 1.000000 3.170000 -5.000000
v 2.000000 3.000000 -5.000000
v 3.000000 3.000000 -5.000000
v 4.000000 3.000000 -5.000000
v -4.000000 4.500000 -14.000000
v 0.000000 4.500000 -14.000000
vt 0.200000 0.000000
vt 0.600000 0.000000
vt 0.200000 0.400000
vt 0.600000 0.400000
vt 0.000000 0.000000
vt 1.000000 0.000000
vt 1.000000 1.000000
vt 0.000000 1.000000
vt 0.000000 0.000000
vt 1.000000 0.000000
vt 1.000000 1.000000
vt 0.000000 1.000000
vt 0.000000 0.000000
vt 1.000000 0.000000
vt 1.000000 1.000000
vt 0.000000 1.000000
vt 0.000000 0.000000
vt 1.000000 0.000000
vt 1.000000 1.000000
vt 0.000000 1.000000
vt 0.000000 0.000000
vt 1.000000 0.000000
vt 1.000000 1.000000
vt 0.000000 1.000000
vt 0.000000 0.000000
vt 1.000000 0.000000
vt 1.000000 1.000000
vt 0.000000 1.000000
vt 0.000000 0.000000
vt 1.000000 0.000000
vt 1.000000 1.000000
vt 0.000000 1.000000
vt 0.000000 0.000000
vt 1.000000 0.000000
vt 1.000000 1.000000
vt 0.000000 1.000000
vn 0.000000 1.000000 0.000000
vn 0.000000 1.000000 0.000000
vn 0.000000 1.000000 0.000000
vn 0.000000 1.000000 0.000000
vn 0.000000 0.000000 1.000000
vn 0.000000 0.000000 1.000000
vn 0.000000 0.000000 1.000000
vn 0.000000 0.000000 1.000000
vn 0.000000 0.000000 1.000000
vn 0.000000 0.000000 1.000000
vn 0.000000 0.000000 1.000000
vn 0.000000 0.000000 1.000000
vn 0.000000 0.000000 1.000000
vn 0.000000 0.000000 1.000000
vn 0.000000 0.000000 1.000000
vn 0.000000 0.000000 1.000000
vn 0.000000 0.000000 1.000000
vn 0.000000 0.000000 1.000000
vn 0.000000 0.000000 1.000000
vn 0.000000 0.000000 1.000000
vn 1.000000 0.000000 0.000000
vn 1.000000 0.000000 0.000000
vn 1.000000 0.000000 0.000000
vn 1.000000 0.000000 0.000000
vn -1.000000 0.000000 0.000000
vn -1.000000 0.000000 0.000000
vn -1.000000 0.000000 0.000000
vn -1.000000 0.000000 0.000000
s off
g stair_hallway_1
usemtl initialShadingGroup
f 10/4/1 9/3/2 3/1/3 4/2/4
s 1
f 2/5/5 12/8/6 11/7/7 1/6/8
f 3/9/9 13/12/10 12/11/6 2/10/5
s 2
f 5/13/11 15/16/12 14/15/13 4/14/14
f 6/17/15 16/20/16 15/19/12 5/18/11
f 7/21/17 17/24/18 16/23/16 6/22/15
f 8/25/19 18/28/20 17/27/18 7/26/17
s off
f 3/29/21 9/30/22 19/31/23 13/32/24
f 10/33/25 4/34/26 14/35/27 20/36/28
g default
v -4.000000 0.000000 -6.000000
v 0.000000 0.000000 -6.000000
v -4.000000 0.250000 -6.000000
v 0.000000 0.250000 -6.000000
v 0.000000 0.250000 -6.500000
v -4.000000 0.250000 -6.500000
v 0.000000 0.500000 -7.000000
v -4.000000 0.500000 -7.000000
v 0.000000 0.500000 -6.500000
v -4.000000 0.500000 -6.500000
v 0.000000 0.750000 -7.500000
v -4.000000 0.750000 -7.500000
v 0.000000 0.750000 -7.000000
v -4.000000 0.750000 -7.000000
v 0.000000 1.000000 -8.000000
v -4.000000 1.000000 -8.000000
v 0.000000 1.000000 -7.500000
v -4.000000 1.000000 -7.500000
v 0.000000 1.250000 -8.500000
v -4.000000 1.250000 -8.500000
v 0.000000 1.250000 -8.000000
v -4.000000 1.250000 -8.000000
v 0.000000 1.500000 -9.000000
v -4.000000 1.500000 -9.000000
v 0.000000 1.500000 -8.500000
v -4.000000 1.500000 -8.500000
v 0.000000 1.750000 -9.500000
v -4.000000 1.750000 -9.500000
v 0.000000 1.750000 -9.000000
v -4.000000 1.750000 -9.000000
v 0.000000 2.000000 -10.000000
v -4.000000 2.000000 -10.000000
v 0.000000 2.000000 -9.500000
v -4.000000 2.000000 -9.500000
v 0.000000 2.250000 -10.500000
v -4.000000 2.250000 -10.500000
v 0.000000 2.250000 -10.000000
v -4.000000 2.250000 -10.000000
v 0.000000 2.500000 -11.000000
v -4.000000 2.500000 -11.000000
v 0.000000 2.500000 -10.500000
v -4.000000 2.500000 -10.500000
v 0.000000 2.750000 -11.500000
v -4.000000 2.750000 -11.500000
v 0.000000 2.750000 -11.000000
v -4.000000 2.750000 -11.000000
v 0.000000 3.000000 -12.000000
v -4.000000 3.000000 -12.000000
v 0.000000 3.000000 -11.500000
v -4.000000 3.000000 -11.500000
v 0.000000 3.250000 -12.500000
v -4.000000 3.250000 -12.500000
v 0.000000 3.250000 -12.000000
v -4.000000 3.250000 -12.000000
v 0.000000 3.500000 -13.000000
v -4.000000 3.500000 -13.000000
v 0.000000 3.500000 -12.500000
v -4.000000 3.500000 -12.500000
v 0.000000 3.750000 -13.500000
v -4.000000 3.750000 -13.500000
v 0.000000 3.750000 -13.000000
v -4.000000 3.750000 -13.000000
v 0.000000 4.000000 -13.500000
v -4.000000 4.000000 -13.500000
v 0.000000 4.000000 -14.000000
v -4.000000 4.000000 -14.000000
vt 0.000000 0.000000
vt 0.500000 0.000000
vt 0.000000 0.000000
vt 0.500000 0.000000
vt 0.500000 0.054010
vt 0.000000 0.054010
vt 0.500000 0.109089
vt 0.000000 0.109089
vt 0.000000 0.054010
vt 0.500000 0.054010
vt 0.500000 0.147792
vt 0.000000 0.147792
vt 0.000000 0.109089
vt 0.500000 0.109089
vt 0.500000 0.195316
vt 0.000000 0.195316
vt 0.000000 0.147792
vt 0.500000 0.147792
vt 0.500000 0.285331
vt 0.000000 0.285331
vt 0.000000 0.195316
vt 0.500000 0.195316
vt 0.500000 0.338604
vt 0.000000 0.338604
vt 0.000000 0.285331
vt 0.500000 0.285331
vt 0.500000 0.395795
vt 0.000000 0.395795
vt 0.000000 0.338604
vt 0.500000 0.338604
vt 0.500000 0.464764
vt 0.000000 0.464764
vt 0.000000 0.395795
vt 0.500000 0.395795
vt 0.500000 0.530436
vt 0.000000 0.530436
vt 0.000000 0.464764
vt 0.500000 0.464764
vt 0.500000 0.596160
vt 0.000000 0.596160
vt 0.000000 0.530436
vt 0.500000 0.530436
vt 0.500000 0.652707
vt 0.000000 0.652707
vt 0.000000 0.596160
vt 0.500000 0.596160
vt 0.500000 0.712393
vt 0.000000 0.712393
vt 0.000000 0.652707
vt 0.500000 0.652707
vt 0.500000 0.796286
vt 0.000000 0.796286
vt 0.000000 0.712393
vt 0.500000 0.712393
vt 0.500000 0.860989
vt 0.000000 0.860989
vt 0.000000 0.796286
vt 0.500000 0.796286
vt 0.500000 0.953743
vt 0.000000 0.953743
vt 0.000000 0.860989
vt 0.500000 0.860989
vt 0.000000 0.953743
vt 0.500000 0.953743
vt 0.500000 1.000000
vt 0.000000 1.000000
vn 0.000000 1.000000 0.000000
vn 0.000000 1.000000 0.000000
vn 0.000000 1.000000 0.000000
vn 0.000000 1.000000 0.000000
vn 0.000000 1.000000 0.000000
vn 0.000000 1.000000 0.000000
vn 0.000000 1.000000 0.000000
vn 0.000000 1.000000 0.000000
vn 0.000000 1.000000 0.000000
vn 0.000000 1.000000 0.000000
vn 0.000000 1.000000 0.000000
vn 0.000000 1.000000 0.000000
vn 0.000000 1.000000 0.000000
vn 0.000000 1.000000 0.000000
vn 0.000000 1.000000 0.000000
vn 0.000000 1.000000 0.000000
vn 0.000000 1.000000 0.000000
vn 0.000000 1.000000 0.000000
vn 0.000000 1.000000 0.000000
vn 0.000000 1.000000 0.000000
vn 0.000000 1.000000 0.000000
vn 0.000000 1.000000 0.000000
vn 0.000000 1.000000 0.000000
vn 0.000000 1.000000 0.000000
vn 0.000000 1.000000 0.000000
vn 0.000000 1.000000 0.000000
vn 0.000000 1.000000 0.000000
vn 0.000000 1.000000 0.000000
vn 0.000000 1.000000 0.000000
vn 0.000000 1.000000 0.000000
vn 0.000000 1.000000 0.000000
vn 0.000000 1.000000 0.000000
vn 0.000000 1.000000 0.000000
vn 0.000000 1.000000 0.000000
vn 0.000000 1.000000 0.000000
vn 0.000000 1.000000 0.000000
vn 0.000000 1.000000 0.000000
vn 0.000000 1.000000 0.000000
vn 0.000000 1.000000 0.000000
vn 0.000000 1.000000 0.000000
vn 0.000000 1.000000 0.000000
vn 0.000000 1.000000 0.000000
vn 0.000000 1.000000 0.000000
vn 0.000000 1.000000 0.000000
vn 0.000000 1.000000 0.000000
vn 0.000000 1.000000 0.000000
vn 0.000000 1.000000 0.000000
vn 0.000000 1.000000 0.000000
vn 0.000000 1.000000 0.000000
vn 0.000000 1.000000 0.000000
vn 0.000000 1.000000 0.000000
vn 0.000000 1.000000 0.000000
vn 0.000000 1.000000 0.000000
vn 0.000000 1.000000 0.000000
vn 0.000000 1.000000 0.000000
vn 0.000000 1.000000 0.000000
vn 0.000000 1.000000 0.000000
vn 0.000000 1.000000 0.000000
vn 0.000000 1.000000 0.000000
vn 0.000000 1.000000 0.000000
vn 0.000000 1.000000 0.000000
vn 0.000000 1.000000 0.000000
vn 0.000000 1.000000 0.000000
vn 0.000000 1.000000 0.000000
vn 0.000000 0.000000 1.000000
vn 0.000000 0.000000 1.000000
vn 0.000000 0.000000 1.000000
vn 0.000000 0.000000 1.000000
vn 0.000000 0.000000 1.000000
vn 0.000000 0.000000 1.000000
vn 0.000000 0.000000 1.000000
vn 0.000000 0.000000 1.000000
vn 0.000000 0.000000 1.000000
vn 0.000000 0.000000 1.000000
vn 0.000000 0.000000 1.000000
vn 0.000000 0.000000 1.000000
vn 0.000000 0.000000 1.000000
vn 0.000000 0.000000 1.000000
vn 0.000000 0.000000 1.000000
vn 0.000000 0.000000 1.000000
vn 0.000000 0.000000 1.000000
vn 0.000000 0.000000 1.000000
vn 0.000000 0.000000 1.000000
vn 0.000000 0.000000 1.000000
vn 0.000000 0.000000 1.000000
vn 0.000000 0.000000 1.000000
vn 0.000000 0.000000 1.000000
vn 0.000000 0.000000 1.000000
vn 0.000000 0.000000 1.000000
vn 0.000000 0.000000 1.000000
vn 0.000000 0.000000 1.000000
vn 0.000000 0.000000 1.000000
vn 0.000000 0.000000 1.000000
vn 0.000000 0.000000 1.000000
vn 0.000000 0.000000 1.000000
vn 0.000000 0.000000 1.000000
vn 0.000000 0.000000 1.000000
vn 0.000000 0.000000 1.000000
vn 0.000000 0.000000 1.000000
vn 0.000000 0.000000 1.000000
vn 0.000000 0.000000 1.000000
vn 0.000000 0.000000 1.000000
vn 0.000000 0.000000 1.000000
vn 0.000000 0.000000 1.000000
vn 0.000000 0.000000 1.000000
vn 0.000000 0.000000 1.000000
vn 0.000000 0.000000 1.000000
vn 0.000000 0.000000 1.000000
vn 0.000000 0.000000 1.000000
vn 0.000000 0.000000 1.000000
vn 0.000000 0.000000 1.000000
vn 0.000000 0.000000 1.000000
vn 0.000000 0.000000 1.000000
vn 0.000000 0.000000 1.000000
vn 0.000000 0.000000 1.000000
vn 0.000000 0.000000 1.000000
vn 0.000000 0.000000 1.000000
vn 0.000000 0.000000 1.000000
vn 0.000000 0.000000 1.000000
vn 0.000000 0.000000 1.000000
vn 0.000000 0.000000 1.000000
vn 0.000000 0.000000 1.000000
vn 0.000000 0.000000 1.000000
vn 0.000000 0.000000 1.000000
vn 0.000000 0.000000 1.000000
vn 0.000000 0.000000 1.000000
vn 0.000000 0.000000 1.000000
vn 0.000000 0.000000 1.000000
s off
g stair_hallway_1 stairs_1
usemtl initialShadingGroup
f 23/39/29 24/40/30 25/41/31 26/42/32
f 84/99/33 83/100/34 85/101/35 86/102/36
f 82/97/37 81/98/38 79/95/39 80/96/40
f 78/93/41 77/94/42 75/91/43 76/92/44
f 74/89/45 73/90/46 71/87/47 72/88/48
f 70/85/49 69/86/50 67/83/51 68/84/52
f 66/81/53 65/82/54 63/79/55 64/80/56
f 62/77/57 61/78/58 59/75/59 60/76/60
f 58/73/61 57/74/62 55/71/63 56/72/64
f 54/69/65 53/70/66 51/67/67 52/68/68
f 50/65/69 49/66/70 47/63/71 48/64/72
f 46/61/73 45/62/74 43/59/75 44/60/76
f 42/57/77 41/58/78 39/55/79 40/56/80
f 38/53/81 37/54/82 35/51/83 36/52/84
f 34/49/85 33/50/86 31/47/87 32/48/88
f 30/45/89 29/46/90 27/43/91 28/44/92
f 21/37/93 22/38/94 24/40/95 23/39/96
f 26/42/97 25/41/98 29/46/99 30/45/100
f 28/44/101 27/43/102 33/50/103 34/49/104
f 32/48/105 31/47/106 37/54/107 38/53/108
f 36/52/109 35/51/110 41/58/111 42/57/112
f 40/56/113 39/55/114 45/62/115 46/61/116
f 44/60/117 43/59/118 49/66/119 50/65/120
f 48/64/121 47/63/122 53/70/123 54/69/124
f 52/68/125 51/67/126 57/74/127 58/73/128
f 56/72/129 55/71/130 61/78/131 62/77/132
f 60/76/133 59/75/134 65/82/135 66/81/136
f 64/80/137 63/79/138 69/86/139 70/85/140
f 68/84/141 67/83/142 73/90/143 74/89/144
f 72/88/145 71/87/146 77/94/147 78/93/148
f 76/92/149 75/91/150 81/98/151 82/97/152
f 80/96/153 79/95/154 83/100/155 84/99/156
g default
v -4.000000 4.500000 -5.000000
v 0.000000 4.500000 -5.000000
v -4.000000 5.000000 -5.000000
v 0.000000 5.000000 -5.000000
v -4.000000 5.000000 -9.464677
v 0.000000 5.000000 -9.404229
v -4.000000 4.500000 -9.978482
v 0.000000 4.500000 -9.706468
v -0.618240 5.000000 -9.525125
v -0.799583 4.500000 -9.902923
v -0.618240 4.500000 -5.000000
v -0.618240 5.000000 -5.000000
v -1.441898 5.000000 -8.996207
v -1.356570 4.500000 -9.081689
v -1.532570 4.500000 -5.000000
v -1.532570 5.000000 -5.000000
v -2.482370 5.000000 -9.147326
v -2.240579 4.500000 -9.041543
v -2.056337 4.500000 -5.000000
v -2.512594 5.000000 -5.000000
v -3.456792 5.000000 -9.736691
v -3.411456 4.500000 -10.054042
v -3.456792 4.500000 -5.000000
v -3.456792 5.000000 -5.000000
v -3.008417 5.000000 -8.749301
v -2.751514 4.500000 -8.346395
v -2.902633 4.500000 -5.000000
v -2.902633 5.000000 -5.000000
v -4.000000 3.300000 -5.000000
v -3.000000 3.370000 -5.000000
v -1.000001 3.370000 -5.000000
v 0.000000 3.300000 -5.000000
v -2.000000 3.400000 -5.000000
vt 0.375000 0.250000
vt 0.625000 0.250000
vt 0.375000 0.500000
vt 0.625000 0.500000
vt 0.375000 0.750000
vt 0.625000 0.750000
vt 0.375000 1.000000
vt 0.625000 1.000000
vt 0.586360 0.500000
vt 0.586360 0.750000
vt 0.586360 1.000000
vt 0.586360 0.250000
vt 0.529214 0.500000
vt 0.529214 0.750000
vt 0.529214 1.000000
vt 0.529214 0.250000
vt 0.467963 0.500000
vt 0.467963 0.750000
vt 0.467963 1.000000
vt 0.467963 0.250000
vt 0.408951 0.500000
vt 0.408951 0.750000
vt 0.408951 1.000000
vt 0.408951 0.250000
vt 0.443585 0.500000
vt 0.443585 0.750000
vt 0.443585 1.000000
vt 0.443585 0.250000
vt 0.000000 0.000000
vt 1.000000 0.000000
vt 1.000000 1.000000
vt 0.000000 1.000000
vt 0.000000 0.000000
vt 1.000000 0.000000
vt 1.000000 1.000000
vt 0.000000 1.000000
vt 0.000000 0.000000
vt 1.000000 0.000000
vt 0.500000 1.000000
vt 0.000000 0.000000
vt 1.000000 0.000000
vt 1.000000 1.000000
vt 0.000000 1.000000
vt 0.000000 0.000000
vt 1.000000 0.000000
vt 0.500000 1.000000
vt 0.000000 0.000000
vt 1.000000 0.000000
vt 1.000000 1.000000
vt 0.000000 1.000000
vn 0.000000 1.000000 0.000000
vn 0.000000 1.000000 0.000000
vn 0.000000 1.000000 0.000000
vn 0.000000 1.000000 0.000000
vn -0.231350 0.615630 -0.753311
vn 0.665284 0.440501 -0.602790
vn 0.567248 0.492331 -0.660182
vn -0.231350 0.615630 -0.753311
vn 0.000000 -1.000000 0.000000
vn 0.000000 -1.000000 0.000000
vn 0.000000 -1.000000 0.000000
vn 0.000000 -1.000000 0.000000
vn -0.261871 0.498021 -0.826679
vn 0.185307 0.529393 -0.827892
vn 0.185307 0.529393 -0.827892
vn -0.318950 0.486000 -0.813680
vn 0.000000 -1.000000 -0.000000
vn 0.000000 -1.000000 -0.000000
vn 0.000000 -1.000000 -0.000000
vn 0.000000 -1.000000 -0.000000
vn 0.000000 1.000000 0.000000
vn 0.000000 1.000000 0.000000
vn 0.000000 1.000000 0.000000
vn 0.000000 1.000000 0.000000
vn -0.294881 0.186865 -0.937084
vn -0.391468 0.237540 -0.889004
vn 0.000000 -1.000000 0.000000
vn 0.000000 -1.000000 0.000000
vn 0.000000 1.000000 0.000000
vn 0.000000 1.000000 0.000000
vn -0.384234 -0.402676 -0.830793
vn -0.239528 -0.273776 -0.931490
vn 0.000000 -1.000000 0.000000
vn 0.000000 -1.000000 0.000000
vn 0.000000 1.000000 -0.000000
vn 0.000000 1.000000 -0.000000
vn 0.724907 -0.011571 -0.688750
vn 0.308338 -0.321306 -0.895372
vn 0.000000 -1.000000 0.000000
vn 0.000000 -1.000000 0.000000
vn 0.000000 1.000000 -0.000000
vn 0.000000 1.000000 -0.000000
vn 0.000000 0.000000 -1.000000
vn 0.000000 0.000000 -1.000000
vn -0.000000 0.000000 -1.000000
vn 0.000000 0.000000 -1.000000
vn -0.000000 0.000000 -1.000000
vn -0.000000 0.000000 -1.000000
vn -0.000000 0.000000 -1.000000
vn -0.000000 0.000000 -1.000000
vn 0.000000 0.000000 -1.000000
vn -0.000000 0.000000 -1.000000
vn 0.000000 0.000000 -1.000000
vn -0.000000 0.000000 -1.000000
s 1
g stair_hallway_1 broken_roof_1
usemtl initialShadingGroup
f 89/103/157 110/126/158 107/123/159 91/105/160
s 2
f 91/105/161 107/123/162 108/124/163 93/107/164
s 3
f 93/107/165 108/124/166 109/125/167 87/109/168
s 2
f 95/111/169 92/106/170 94/108/171 96/112/172
s 3
f 97/113/173 96/112/174 94/108/175 88/110/176
s 1
f 95/111/177 98/114/178 90/104/179 92/106/180
s 2
f 99/115/181 95/111/169 96/112/172 100/116/182
s 3
f 101/117/183 100/116/184 96/112/174 97/113/173
s 1
f 99/115/185 102/118/186 98/114/178 95/111/177
s 2
f 103/119/187 99/115/181 100/116/182 104/120/188
s 3
f 105/121/189 104/120/190 100/116/184 101/117/183
s 1
f 103/119/191 106/122/192 102/118/186 99/115/185
s 2
f 107/123/162 111/127/193 112/128/194 108/124/163
s 3
f 109/125/167 108/124/166 112/128/195 113/129/196
s 1
f 107/123/159 110/126/158 114/130/197 111/127/198
s 2
f 111/127/193 103/119/187 104/120/188 112/128/194
s 3
f 113/129/196 112/128/195 104/120/190 105/121/189
s 1
f 111/127/198 114/130/197 106/122/192 103/119/191
s 7
f 87/131/199 109/132/200 116/133/201 115/134/202
f 97/135/203 88/136/204 118/137/205 117/138/206
f 101/139/207 97/140/203 117/141/206
f 105/142/208 101/143/207 117/144/206 119/145/209
f 109/146/200 113/147/210 116/148/201
f 113/149/210 105/150/208 119/151/209 116/152/201
