# This file uses centimeters as units for non-parametric coordinates.

mtllib catacomb_stairs_1.mtl
g default
v -6.000000 0.000000 -5.000000
v -5.000000 0.000000 -5.000000
v -4.000000 0.000000 -5.000000
v 0.000000 0.000000 -5.000000
v 1.000000 0.000000 -5.000000
v 2.000000 0.000000 -5.000000
v 3.000000 0.000000 -5.000000
v 4.000000 0.000000 -5.000000
v -4.000000 0.000000 -14.000000
v 0.000000 0.000000 -14.000000
v -6.000000 2.540000 -5.000000
v -5.000000 3.170000 -5.000000
v -4.000000 4.500000 -5.000000
v 0.000000 4.500000 -5.000000
v 1.000000 3.170000 -5.000000
v 2.000000 3.000000 -5.000000
v 3.000000 3.000000 -5.000000
v 4.000000 3.000000 -5.000000
v -4.000000 4.500000 -14.000000
v 0.000000 4.500000 -14.000000
v -12.273459 4.500000 -5.000000
v -12.273459 4.500000 -14.000000
v 8.273459 4.500000 -5.000000
v 8.273459 4.500000 -14.000000
vt 0.200000 0.000000
vt 0.600000 0.000000
vt 0.200000 0.400000
vt 0.600000 0.400000
vt 0.000000 0.000000
vt 1.000000 0.000000
vt 1.000000 1.000000
vt 0.000000 1.000000
vt 0.000000 0.000000
vt 1.000000 0.000000
vt 1.000000 1.000000
vt 0.000000 1.000000
vt 0.000000 0.000000
vt 1.000000 0.000000
vt 1.000000 1.000000
vt 0.000000 1.000000
vt 0.000000 0.000000
vt 1.000000 0.000000
vt 1.000000 1.000000
vt 0.000000 1.000000
vt 0.000000 0.000000
vt 1.000000 0.000000
vt 1.000000 1.000000
vt 0.000000 1.000000
vt 0.000000 0.000000
vt 1.000000 0.000000
vt 1.000000 1.000000
vt 0.000000 1.000000
vt 0.000000 0.000000
vt 1.000000 0.000000
vt 1.000000 1.000000
vt 0.000000 1.000000
vt 0.000000 0.000000
vt 1.000000 0.000000
vt 1.000000 1.000000
vt 0.000000 1.000000
vt 0.000000 0.000000
vt 1.000000 0.000000
vt 1.000000 1.000000
vt 0.000000 1.000000
vt 0.000000 0.000000
vt 1.000000 0.000000
vt 1.000000 1.000000
vt 0.000000 1.000000
vn 0.000000 1.000000 0.000000
vn 0.000000 1.000000 0.000000
vn 0.000000 1.000000 0.000000
vn 0.000000 1.000000 0.000000
vn 0.000000 0.000000 1.000000
vn 0.000000 0.000000 1.000000
vn 0.000000 0.000000 1.000000
vn 0.000000 0.000000 1.000000
vn 0.000000 0.000000 1.000000
vn 0.000000 0.000000 1.000000
vn 0.000000 0.000000 1.000000
vn 0.000000 0.000000 1.000000
vn 0.000000 0.000000 1.000000
vn 0.000000 0.000000 1.000000
vn 0.000000 0.000000 1.000000
vn 0.000000 0.000000 1.000000
vn 0.000000 0.000000 1.000000
vn 0.000000 0.000000 1.000000
vn 0.000000 0.000000 1.000000
vn 0.000000 0.000000 1.000000
vn 1.000000 0.000000 0.000000
vn 1.000000 0.000000 0.000000
vn 1.000000 0.000000 0.000000
vn 1.000000 0.000000 0.000000
vn -1.000000 0.000000 0.000000
vn -1.000000 0.000000 0.000000
vn -1.000000 0.000000 0.000000
vn -1.000000 0.000000 0.000000
vn 0.000000 1.000000 0.000000
vn 0.000000 1.000000 0.000000
vn 0.000000 1.000000 0.000000
vn 0.000000 1.000000 0.000000
vn 0.000000 1.000000 0.000000
vn 0.000000 1.000000 0.000000
vn 0.000000 1.000000 0.000000
vn 0.000000 1.000000 0.000000
s off
g pPlane1
usemtl initialShadingGroup
f 10/4/1 9/3/2 3/1/3 4/2/4
s 1
f 2/5/5 12/8/6 11/7/7 1/6/8
f 3/9/9 13/12/10 12/11/6 2/10/5
s 2
f 5/13/11 15/16/12 14/15/13 4/14/14
f 6/17/15 16/20/16 15/19/12 5/18/11
f 7/21/17 17/24/18 16/23/16 6/22/15
f 8/25/19 18/28/20 17/27/18 7/26/17
s off
f 3/29/21 9/30/22 19/31/23 13/32/24
f 10/33/25 4/34/26 14/35/27 20/36/28
f 13/37/29 19/38/30 22/39/31 21/40/32
f 20/41/33 14/42/34 23/43/35 24/44/36
g default
v -4.000000 0.000000 -6.000000
v 0.000000 0.000000 -6.000000
v -4.000000 0.250000 -6.000000
v 0.000000 0.250000 -6.000000
v 0.000000 0.250000 -6.500000
v -4.000000 0.250000 -6.500000
v 0.000000 0.500000 -7.000000
v -4.000000 0.500000 -7.000000
v 0.000000 0.500000 -6.500000
v -4.000000 0.500000 -6.500000
v 0.000000 0.750000 -7.500000
v -4.000000 0.750000 -7.500000
v 0.000000 0.750000 -7.000000
v -4.000000 0.750000 -7.000000
v 0.000000 1.000000 -8.000000
v -4.000000 1.000000 -8.000000
v 0.000000 1.000000 -7.500000
v -4.000000 1.000000 -7.500000
v 0.000000 1.250000 -8.500000
v -4.000000 1.250000 -8.500000
v 0.000000 1.250000 -8.000000
v -4.000000 1.250000 -8.000000
v 0.000000 1.500000 -9.000000
v -4.000000 1.500000 -9.000000
v 0.000000 1.500000 -8.500000
v -4.000000 1.500000 -8.500000
v 0.000000 1.750000 -9.500000
v -4.000000 1.750000 -9.500000
v 0.000000 1.750000 -9.000000
v -4.000000 1.750000 -9.000000
v 0.000000 2.000000 -10.000000
v -4.000000 2.000000 -10.000000
v 0.000000 2.000000 -9.500000
v -4.000000 2.000000 -9.500000
v 0.000000 2.250000 -10.500000
v -4.000000 2.250000 -10.500000
v 0.000000 2.250000 -10.000000
v -4.000000 2.250000 -10.000000
v 0.000000 2.500000 -11.000000
v -4.000000 2.500000 -11.000000
v 0.000000 2.500000 -10.500000
v -4.000000 2.500000 -10.500000
v 0.000000 2.750000 -11.500000
v -4.000000 2.750000 -11.500000
v 0.000000 2.750000 -11.000000
v -4.000000 2.750000 -11.000000
v 0.000000 3.000000 -12.000000
v -4.000000 3.000000 -12.000000
v 0.000000 3.000000 -11.500000
v -4.000000 3.000000 -11.500000
v 0.000000 3.250000 -12.500000
v -4.000000 3.250000 -12.500000
v 0.000000 3.250000 -12.000000
v -4.000000 3.250000 -12.000000
v 0.000000 3.500000 -13.000000
v -4.000000 3.500000 -13.000000
v 0.000000 3.500000 -12.500000
v -4.000000 3.500000 -12.500000
v 0.000000 3.750000 -13.500000
v -4.000000 3.750000 -13.500000
v 0.000000 3.750000 -13.000000
v -4.000000 3.750000 -13.000000
v 0.000000 4.000000 -13.500000
v -4.000000 4.000000 -13.500000
v 0.000000 4.000000 -14.000000
v -4.000000 4.000000 -14.000000
vt 0.000000 0.000000
vt 0.500000 0.000000
vt 0.000000 0.000000
vt 0.500000 0.000000
vt 0.500000 0.054010
vt 0.000000 0.054010
vt 0.500000 0.109089
vt 0.000000 0.109089
vt 0.000000 0.054010
vt 0.500000 0.054010
vt 0.500000 0.147792
vt 0.000000 0.147792
vt 0.000000 0.109089
vt 0.500000 0.109089
vt 0.500000 0.195316
vt 0.000000 0.195316
vt 0.000000 0.147792
vt 0.500000 0.147792
vt 0.500000 0.285331
vt 0.000000 0.285331
vt 0.000000 0.195316
vt 0.500000 0.195316
vt 0.500000 0.338604
vt 0.000000 0.338604
vt 0.000000 0.285331
vt 0.500000 0.285331
vt 0.500000 0.395795
vt 0.000000 0.395795
vt 0.000000 0.338604
vt 0.500000 0.338604
vt 0.500000 0.464764
vt 0.000000 0.464764
vt 0.000000 0.395795
vt 0.500000 0.395795
vt 0.500000 0.530436
vt 0.000000 0.530436
vt 0.000000 0.464764
vt 0.500000 0.464764
vt 0.500000 0.596160
vt 0.000000 0.596160
vt 0.000000 0.530436
vt 0.500000 0.530436
vt 0.500000 0.652707
vt 0.000000 0.652707
vt 0.000000 0.596160
vt 0.500000 0.596160
vt 0.500000 0.712393
vt 0.000000 0.712393
vt 0.000000 0.652707
vt 0.500000 0.652707
vt 0.500000 0.796286
vt 0.000000 0.796286
vt 0.000000 0.712393
vt 0.500000 0.712393
vt 0.500000 0.860989
vt 0.000000 0.860989
vt 0.000000 0.796286
vt 0.500000 0.796286
vt 0.500000 0.953743
vt 0.000000 0.953743
vt 0.000000 0.860989
vt 0.500000 0.860989
vt 0.000000 0.953743
vt 0.500000 0.953743
vt 0.500000 1.000000
vt 0.000000 1.000000
vn 0.000000 1.000000 0.000000
vn 0.000000 1.000000 0.000000
vn 0.000000 1.000000 0.000000
vn 0.000000 1.000000 0.000000
vn 0.000000 1.000000 0.000000
vn 0.000000 1.000000 0.000000
vn 0.000000 1.000000 0.000000
vn 0.000000 1.000000 0.000000
vn 0.000000 1.000000 0.000000
vn 0.000000 1.000000 0.000000
vn 0.000000 1.000000 0.000000
vn 0.000000 1.000000 0.000000
vn 0.000000 1.000000 0.000000
vn 0.000000 1.000000 0.000000
vn 0.000000 1.000000 0.000000
vn 0.000000 1.000000 0.000000
vn 0.000000 1.000000 0.000000
vn 0.000000 1.000000 0.000000
vn 0.000000 1.000000 0.000000
vn 0.000000 1.000000 0.000000
vn 0.000000 1.000000 0.000000
vn 0.000000 1.000000 0.000000
vn 0.000000 1.000000 0.000000
vn 0.000000 1.000000 0.000000
vn 0.000000 1.000000 0.000000
vn 0.000000 1.000000 0.000000
vn 0.000000 1.000000 0.000000
vn 0.000000 1.000000 0.000000
vn 0.000000 1.000000 0.000000
vn 0.000000 1.000000 0.000000
vn 0.000000 1.000000 0.000000
vn 0.000000 1.000000 0.000000
vn 0.000000 1.000000 0.000000
vn 0.000000 1.000000 0.000000
vn 0.000000 1.000000 0.000000
vn 0.000000 1.000000 0.000000
vn 0.000000 1.000000 0.000000
vn 0.000000 1.000000 0.000000
vn 0.000000 1.000000 0.000000
vn 0.000000 1.000000 0.000000
vn 0.000000 1.000000 0.000000
vn 0.000000 1.000000 0.000000
vn 0.000000 1.000000 0.000000
vn 0.000000 1.000000 0.000000
vn 0.000000 1.000000 0.000000
vn 0.000000 1.000000 0.000000
vn 0.000000 1.000000 0.000000
vn 0.000000 1.000000 0.000000
vn 0.000000 1.000000 0.000000
vn 0.000000 1.000000 0.000000
vn 0.000000 1.000000 0.000000
vn 0.000000 1.000000 0.000000
vn 0.000000 1.000000 0.000000
vn 0.000000 1.000000 0.000000
vn 0.000000 1.000000 0.000000
vn 0.000000 1.000000 0.000000
vn 0.000000 1.000000 0.000000
vn 0.000000 1.000000 0.000000
vn 0.000000 1.000000 0.000000
vn 0.000000 1.000000 0.000000
vn 0.000000 1.000000 0.000000
vn 0.000000 1.000000 0.000000
vn 0.000000 1.000000 0.000000
vn 0.000000 1.000000 0.000000
vn 0.000000 0.000000 1.000000
vn 0.000000 0.000000 1.000000
vn 0.000000 0.000000 1.000000
vn 0.000000 0.000000 1.000000
vn 0.000000 0.000000 1.000000
vn 0.000000 0.000000 1.000000
vn 0.000000 0.000000 1.000000
vn 0.000000 0.000000 1.000000
vn 0.000000 0.000000 1.000000
vn 0.000000 0.000000 1.000000
vn 0.000000 0.000000 1.000000
vn 0.000000 0.000000 1.000000
vn 0.000000 0.000000 1.000000
vn 0.000000 0.000000 1.000000
vn 0.000000 0.000000 1.000000
vn 0.000000 0.000000 1.000000
vn 0.000000 0.000000 1.000000
vn 0.000000 0.000000 1.000000
vn 0.000000 0.000000 1.000000
vn 0.000000 0.000000 1.000000
vn 0.000000 0.000000 1.000000
vn 0.000000 0.000000 1.000000
vn 0.000000 0.000000 1.000000
vn 0.000000 0.000000 1.000000
vn 0.000000 0.000000 1.000000
vn 0.000000 0.000000 1.000000
vn 0.000000 0.000000 1.000000
vn 0.000000 0.000000 1.000000
vn 0.000000 0.000000 1.000000
vn 0.000000 0.000000 1.000000
vn 0.000000 0.000000 1.000000
vn 0.000000 0.000000 1.000000
vn 0.000000 0.000000 1.000000
vn 0.000000 0.000000 1.000000
vn 0.000000 0.000000 1.000000
vn 0.000000 0.000000 1.000000
vn 0.000000 0.000000 1.000000
vn 0.000000 0.000000 1.000000
vn 0.000000 0.000000 1.000000
vn 0.000000 0.000000 1.000000
vn 0.000000 0.000000 1.000000
vn 0.000000 0.000000 1.000000
vn 0.000000 0.000000 1.000000
vn 0.000000 0.000000 1.000000
vn 0.000000 0.000000 1.000000
vn 0.000000 0.000000 1.000000
vn 0.000000 0.000000 1.000000
vn 0.000000 0.000000 1.000000
vn 0.000000 0.000000 1.000000
vn 0.000000 0.000000 1.000000
vn 0.000000 0.000000 1.000000
vn 0.000000 0.000000 1.000000
vn 0.000000 0.000000 1.000000
vn 0.000000 0.000000 1.000000
vn 0.000000 0.000000 1.000000
vn 0.000000 0.000000 1.000000
vn 0.000000 0.000000 1.000000
vn 0.000000 0.000000 1.000000
vn 0.000000 0.000000 1.000000
vn 0.000000 0.000000 1.000000
vn 0.000000 0.000000 1.000000
vn 0.000000 0.000000 1.000000
vn 0.000000 0.000000 1.000000
vn 0.000000 0.000000 1.000000
s off
g pPlane2
usemtl initialShadingGroup
f 27/47/37 28/48/38 29/49/39 30/50/40
f 88/107/41 87/108/42 89/109/43 90/110/44
f 86/105/45 85/106/46 83/103/47 84/104/48
f 82/101/49 81/102/50 79/99/51 80/100/52
f 78/97/53 77/98/54 75/95/55 76/96/56
f 74/93/57 73/94/58 71/91/59 72/92/60
f 70/89/61 69/90/62 67/87/63 68/88/64
f 66/85/65 65/86/66 63/83/67 64/84/68
f 62/81/69 61/82/70 59/79/71 60/80/72
f 58/77/73 57/78/74 55/75/75 56/76/76
f 54/73/77 53/74/78 51/71/79 52/72/80
f 50/69/81 49/70/82 47/67/83 48/68/84
f 46/65/85 45/66/86 43/63/87 44/64/88
f 42/61/89 41/62/90 39/59/91 40/60/92
f 38/57/93 37/58/94 35/55/95 36/56/96
f 34/53/97 33/54/98 31/51/99 32/52/100
f 25/45/101 26/46/102 28/48/103 27/47/104
f 30/50/105 29/49/106 33/54/107 34/53/108
f 32/52/109 31/51/110 37/58/111 38/57/112
f 36/56/113 35/55/114 41/62/115 42/61/116
f 40/60/117 39/59/118 45/66/119 46/65/120
f 44/64/121 43/63/122 49/70/123 50/69/124
f 48/68/125 47/67/126 53/74/127 54/73/128
f 52/72/129 51/71/130 57/78/131 58/77/132
f 56/76/133 55/75/134 61/82/135 62/81/136
f 60/80/137 59/79/138 65/86/139 66/85/140
f 64/84/141 63/83/142 69/90/143 70/89/144
f 68/88/145 67/87/146 73/94/147 74/93/148
f 72/92/149 71/91/150 77/98/151 78/97/152
f 76/96/153 75/95/154 81/102/155 82/101/156
f 80/100/157 79/99/158 85/106/159 86/105/160
f 84/104/161 83/103/162 87/108/163 88/107/164
g default
v -4.000000 4.500000 -5.000000
v 0.000000 4.500000 -5.000000
v -4.000000 5.000000 -5.000000
v 0.000000 5.000000 -5.000000
v -4.000000 5.000000 -6.611818
v 0.000000 5.000000 -6.551370
v -4.000000 4.500000 -7.125623
v 0.000000 4.500000 -6.853609
v -0.618240 5.000000 -6.672266
v -0.799583 4.500000 -7.050064
v -0.618240 4.500000 -5.000000
v -0.618240 5.000000 -5.000000
v -1.441898 5.000000 -6.143348
v -1.356570 4.500000 -6.228830
v -1.532570 4.500000 -5.000000
v -1.532570 5.000000 -5.000000
v -2.482370 5.000000 -6.294467
v -2.240579 4.500000 -6.188684
v -2.056337 4.500000 -5.000000
v -2.512594 5.000000 -5.000000
v -3.456792 5.000000 -6.883832
v -3.411456 4.500000 -7.201183
v -3.456792 4.500000 -5.000000
v -3.456792 5.000000 -5.000000
v -3.008417 5.000000 -5.896442
v -2.751514 4.500000 -5.493536
v -2.902633 4.500000 -5.000000
v -2.902633 5.000000 -5.000000
v -4.000000 3.300000 -5.000000
v -3.000000 3.370000 -5.000000
v -1.000001 3.370000 -5.000000
v 0.000000 3.300000 -5.000000
v -2.000000 3.400000 -5.000000
vt 0.375000 0.250000
vt 0.625000 0.250000
vt 0.375000 0.500000
vt 0.625000 0.500000
vt 0.375000 0.750000
vt 0.625000 0.750000
vt 0.375000 1.000000
vt 0.625000 1.000000
vt 0.586360 0.500000
vt 0.586360 0.750000
vt 0.586360 1.000000
vt 0.586360 0.250000
vt 0.529214 0.500000
vt 0.529214 0.750000
vt 0.529214 1.000000
vt 0.529214 0.250000
vt 0.467963 0.500000
vt 0.467963 0.750000
vt 0.467963 1.000000
vt 0.467963 0.250000
vt 0.408951 0.500000
vt 0.408951 0.750000
vt 0.408951 1.000000
vt 0.408951 0.250000
vt 0.443585 0.500000
vt 0.443585 0.750000
vt 0.443585 1.000000
vt 0.443585 0.250000
vt 0.000000 0.000000
vt 1.000000 0.000000
vt 1.000000 1.000000
vt 0.000000 1.000000
vt 0.000000 0.000000
vt 1.000000 0.000000
vt 1.000000 1.000000
vt 0.000000 1.000000
vt 0.000000 0.000000
vt 1.000000 0.000000
vt 0.500000 1.000000
vt 0.000000 0.000000
vt 1.000000 0.000000
vt 1.000000 1.000000
vt 0.000000 1.000000
vt 0.000000 0.000000
vt 1.000000 0.000000
vt 0.500000 1.000000
vt 0.000000 0.000000
vt 1.000000 0.000000
vt 1.000000 1.000000
vt 0.000000 1.000000
vn 0.000000 1.000000 0.000000
vn 0.000000 1.000000 0.000000
vn 0.000000 1.000000 0.000000
vn 0.000000 1.000000 0.000000
vn -0.231350 0.615630 -0.753311
vn 0.665284 0.440501 -0.602790
vn 0.567248 0.492331 -0.660182
vn -0.231350 0.615630 -0.753311
vn 0.000000 -1.000000 0.000000
vn 0.000000 -1.000000 0.000000
vn 0.000000 -1.000000 0.000000
vn 0.000000 -1.000000 0.000000
vn -0.261871 0.498021 -0.826679
vn 0.185307 0.529393 -0.827892
vn 0.185307 0.529393 -0.827892
vn -0.318950 0.486000 -0.813680
vn 0.000000 -1.000000 -0.000000
vn 0.000000 -1.000000 -0.000000
vn 0.000000 -1.000000 -0.000000
vn 0.000000 -1.000000 -0.000000
vn 0.000000 1.000000 0.000000
vn 0.000000 1.000000 0.000000
vn 0.000000 1.000000 0.000000
vn 0.000000 1.000000 0.000000
vn -0.294881 0.186865 -0.937084
vn -0.391468 0.237540 -0.889004
vn 0.000000 -1.000000 0.000000
vn 0.000000 -1.000000 0.000000
vn 0.000000 1.000000 0.000000
vn 0.000000 1.000000 0.000000
vn -0.384234 -0.402676 -0.830793
vn -0.239528 -0.273776 -0.931490
vn 0.000000 -1.000000 0.000000
vn 0.000000 -1.000000 0.000000
vn 0.000000 1.000000 -0.000000
vn 0.000000 1.000000 -0.000000
vn 0.724907 -0.011571 -0.688750
vn 0.308338 -0.321306 -0.895372
vn 0.000000 -1.000000 0.000000
vn 0.000000 -1.000000 0.000000
vn 0.000000 1.000000 -0.000000
vn 0.000000 1.000000 -0.000000
vn 0.000000 0.000000 -1.000000
vn 0.000000 0.000000 -1.000000
vn -0.000000 0.000000 -1.000000
vn 0.000000 0.000000 -1.000000
vn -0.000000 0.000000 -1.000000
vn -0.000000 0.000000 -1.000000
vn -0.000000 0.000000 -1.000000
vn -0.000000 0.000000 -1.000000
vn 0.000000 0.000000 -1.000000
vn -0.000000 0.000000 -1.000000
vn 0.000000 0.000000 -1.000000
vn -0.000000 0.000000 -1.000000
s 1
g pCube1
usemtl initialShadingGroup
f 93/111/165 114/134/166 111/131/167 95/113/168
s 2
f 95/113/169 111/131/170 112/132/171 97/115/172
s 3
f 97/115/173 112/132/174 113/133/175 91/117/176
s 2
f 99/119/177 96/114/178 98/116/179 100/120/180
s 3
f 101/121/181 100/120/182 98/116/183 92/118/184
s 1
f 99/119/185 102/122/186 94/112/187 96/114/188
s 2
f 103/123/189 99/119/177 100/120/180 104/124/190
s 3
f 105/125/191 104/124/192 100/120/182 101/121/181
s 1
f 103/123/193 106/126/194 102/122/186 99/119/185
s 2
f 107/127/195 103/123/189 104/124/190 108/128/196
s 3
f 109/129/197 108/128/198 104/124/192 105/125/191
s 1
f 107/127/199 110/130/200 106/126/194 103/123/193
s 2
f 111/131/170 115/135/201 116/136/202 112/132/171
s 3
f 113/133/175 112/132/174 116/136/203 117/137/204
s 1
f 111/131/167 114/134/166 118/138/205 115/135/206
s 2
f 115/135/201 107/127/195 108/128/196 116/136/202
s 3
f 117/137/204 116/136/203 108/128/198 109/129/197
s 1
f 115/135/206 118/138/205 110/130/200 107/127/199
s 7
f 91/139/207 113/140/208 120/141/209 119/142/210
f 101/143/211 92/144/212 122/145/213 121/146/214
f 105/147/215 101/148/211 121/149/214
f 109/150/216 105/151/215 121/152/214 123/153/217
f 113/154/208 117/155/218 120/156/209
f 117/157/218 109/158/216 123/159/217 120/160/209
